ply
format ascii 1.0
comment Created by Blender 2.82 (sub 7) - www.blender.org, source file: 'genericSolid.blend'
element vertex 80
property float x
property float y
property float z
property float nx
property float ny
property float nz
property float s
property float t
element face 22
property list uchar uint vertex_indices
end_header
-0.300000 -0.300000 -0.938578 -1.000000 -0.000000 0.000000 0.375000 0.000000
-0.300000 -0.300000 -0.878578 -1.000000 -0.000000 0.000000 0.625000 0.000000
-0.300000 0.300000 -0.878578 -1.000000 -0.000000 0.000000 0.625000 0.250000
-0.300000 0.300000 -0.938578 -1.000000 -0.000000 0.000000 0.375000 0.250000
-0.300000 0.300000 -0.938578 0.000000 1.000000 0.000000 0.375000 0.250000
-0.300000 0.300000 -0.878578 0.000000 1.000000 0.000000 0.625000 0.250000
0.300000 0.300000 -0.878578 0.000000 1.000000 0.000000 0.625000 0.500000
0.300000 0.300000 -0.938578 0.000000 1.000000 0.000000 0.375000 0.500000
0.300000 0.300000 -0.938578 1.000000 -0.000000 0.000000 0.375000 0.500000
0.300000 0.300000 -0.878578 1.000000 -0.000000 0.000000 0.625000 0.500000
0.300000 -0.300000 -0.878578 1.000000 -0.000000 0.000000 0.625000 0.750000
0.300000 -0.300000 -0.938578 1.000000 -0.000000 0.000000 0.375000 0.750000
0.300000 -0.300000 -0.938578 0.000000 -1.000000 0.000000 0.375000 0.750000
0.300000 -0.300000 -0.878578 0.000000 -1.000000 0.000000 0.625000 0.750000
-0.300000 -0.300000 -0.878578 0.000000 -1.000000 0.000000 0.625000 1.000000
-0.300000 -0.300000 -0.938578 0.000000 -1.000000 0.000000 0.375000 1.000000
-0.300000 0.300000 -0.938578 0.000000 0.000000 -1.000000 0.125000 0.500000
0.300000 0.300000 -0.938578 0.000000 0.000000 -1.000000 0.375000 0.500000
0.300000 -0.300000 -0.938578 0.000000 0.000000 -1.000000 0.375000 0.750000
-0.300000 -0.300000 -0.938578 0.000000 0.000000 -1.000000 0.125000 0.750000
0.300000 0.300000 -0.878578 0.000000 -0.000000 1.000000 0.625000 0.500000
-0.300000 0.300000 -0.878578 0.000000 -0.000000 1.000000 0.875000 0.500000
-0.300000 -0.300000 -0.878578 0.000000 -0.000000 1.000000 0.875000 0.750000
0.300000 -0.300000 -0.878578 0.000000 -0.000000 1.000000 0.625000 0.750000
-0.600000 -0.600000 -0.586726 -0.895662 0.000000 0.444735 0.375000 0.000000
0.000000 0.000000 0.621628 -0.895662 0.000000 0.444735 0.625000 0.250000
-0.600000 0.600000 -0.586726 -0.895662 0.000000 0.444735 0.375000 0.250000
-0.600000 0.600000 -0.586726 0.000000 0.895662 0.444735 0.375000 0.250000
0.000000 0.000000 0.621628 0.000000 0.895662 0.444735 0.625000 0.500000
0.600000 0.600000 -0.586726 0.000000 0.895662 0.444735 0.375000 0.500000
0.600000 0.600000 -0.586726 0.895662 0.000000 0.444735 0.375000 0.500000
0.000000 0.000000 0.621628 0.895662 0.000000 0.444735 0.625000 0.750000
0.600000 -0.600000 -0.586726 0.895662 0.000000 0.444735 0.375000 0.750000
0.600000 -0.600000 -0.586726 0.000000 -0.895662 0.444735 0.375000 0.750000
0.000000 0.000000 0.621628 0.000000 -0.895662 0.444735 0.625000 1.000000
-0.600000 -0.600000 -0.586726 0.000000 -0.895662 0.444735 0.375000 1.000000
-0.600000 0.600000 -0.586726 0.000000 0.000000 -1.000000 0.125000 0.500000
0.600000 0.600000 -0.586726 0.000000 0.000000 -1.000000 0.375000 0.500000
0.600000 -0.600000 -0.586726 0.000000 0.000000 -1.000000 0.375000 0.750000
-0.600000 -0.600000 -0.586726 0.000000 0.000000 -1.000000 0.125000 0.750000
-0.600000 0.600000 -0.065486 -0.895662 0.000000 -0.444735 0.375000 0.000000
0.000000 0.000000 -1.273840 -0.895662 0.000000 -0.444735 0.625000 0.250000
-0.600000 -0.600000 -0.065486 -0.895662 0.000000 -0.444735 0.375000 0.250000
-0.600000 -0.600000 -0.065486 0.000000 -0.895662 -0.444735 0.375000 0.250000
0.000000 0.000000 -1.273840 0.000000 -0.895662 -0.444735 0.625000 0.500000
0.600000 -0.600000 -0.065486 0.000000 -0.895662 -0.444735 0.375000 0.500000
0.600000 -0.600000 -0.065486 0.895662 0.000000 -0.444735 0.375000 0.500000
0.000000 0.000000 -1.273840 0.895662 0.000000 -0.444735 0.625000 0.750000
0.600000 0.600000 -0.065486 0.895662 0.000000 -0.444735 0.375000 0.750000
0.600000 0.600000 -0.065486 0.000000 0.895662 -0.444735 0.375000 0.750000
0.000000 0.000000 -1.273840 0.000000 0.895662 -0.444735 0.625000 1.000000
-0.600000 0.600000 -0.065486 0.000000 0.895662 -0.444735 0.375000 1.000000
-0.600000 -0.600000 -0.065486 0.000000 -0.000000 1.000000 0.125000 0.500000
0.600000 -0.600000 -0.065486 0.000000 -0.000000 1.000000 0.375000 0.500000
0.600000 0.600000 -0.065486 0.000000 -0.000000 1.000000 0.375000 0.750000
-0.600000 0.600000 -0.065486 0.000000 -0.000000 1.000000 0.125000 0.750000
-0.300000 -0.300000 0.231499 -1.000000 -0.000000 0.000000 0.375000 0.000000
-0.300000 -0.300000 0.291499 -1.000000 -0.000000 0.000000 0.625000 0.000000
-0.300000 0.300000 0.291499 -1.000000 -0.000000 0.000000 0.625000 0.250000
-0.300000 0.300000 0.231499 -1.000000 -0.000000 0.000000 0.375000 0.250000
-0.300000 0.300000 0.231499 0.000000 1.000000 0.000000 0.375000 0.250000
-0.300000 0.300000 0.291499 0.000000 1.000000 0.000000 0.625000 0.250000
0.300000 0.300000 0.291499 0.000000 1.000000 0.000000 0.625000 0.500000
0.300000 0.300000 0.231499 0.000000 1.000000 0.000000 0.375000 0.500000
0.300000 0.300000 0.231499 1.000000 -0.000000 0.000000 0.375000 0.500000
0.300000 0.300000 0.291499 1.000000 -0.000000 0.000000 0.625000 0.500000
0.300000 -0.300000 0.291499 1.000000 -0.000000 0.000000 0.625000 0.750000
0.300000 -0.300000 0.231499 1.000000 -0.000000 0.000000 0.375000 0.750000
0.300000 -0.300000 0.231499 0.000000 -1.000000 0.000000 0.375000 0.750000
0.300000 -0.300000 0.291499 0.000000 -1.000000 0.000000 0.625000 0.750000
-0.300000 -0.300000 0.291499 0.000000 -1.000000 0.000000 0.625000 1.000000
-0.300000 -0.300000 0.231499 0.000000 -1.000000 0.000000 0.375000 1.000000
-0.300000 0.300000 0.231499 0.000000 0.000000 -1.000000 0.125000 0.500000
0.300000 0.300000 0.231499 0.000000 0.000000 -1.000000 0.375000 0.500000
0.300000 -0.300000 0.231499 0.000000 0.000000 -1.000000 0.375000 0.750000
-0.300000 -0.300000 0.231499 0.000000 0.000000 -1.000000 0.125000 0.750000
0.300000 0.300000 0.291499 0.000000 -0.000000 1.000000 0.625000 0.500000
-0.300000 0.300000 0.291499 0.000000 -0.000000 1.000000 0.875000 0.500000
-0.300000 -0.300000 0.291499 0.000000 -0.000000 1.000000 0.875000 0.750000
0.300000 -0.300000 0.291499 0.000000 -0.000000 1.000000 0.625000 0.750000
4 0 1 2 3
4 4 5 6 7
4 8 9 10 11
4 12 13 14 15
4 16 17 18 19
4 20 21 22 23
3 24 25 26
3 27 28 29
3 30 31 32
3 33 34 35
4 36 37 38 39
3 40 41 42
3 43 44 45
3 46 47 48
3 49 50 51
4 52 53 54 55
4 56 57 58 59
4 60 61 62 63
4 64 65 66 67
4 68 69 70 71
4 72 73 74 75
4 76 77 78 79
