# Blender v2.82 (sub 7) OBJ File: 'genericSolid.blend'
# www.blender.org
mtllib genericSolid.mtl
o Cube.003_Cube.005
v -0.300000 -0.580716 0.300000
v -0.300000 -0.520716 0.300000
v -0.300000 -0.580716 -0.300000
v -0.300000 -0.520716 -0.300000
v 0.300000 -0.580716 0.300000
v 0.300000 -0.520716 0.300000
v 0.300000 -0.580716 -0.300000
v 0.300000 -0.520716 -0.300000
v -0.600000 -0.228864 0.600000
v 0.000000 0.979490 0.000000
v -0.600000 -0.228864 -0.600000
v 0.600000 -0.228864 0.600000
v 0.600000 -0.228864 -0.600000
v -0.600000 0.292376 -0.600000
v 0.000000 -0.915978 -0.000000
v -0.600000 0.292376 0.600000
v 0.600000 0.292376 -0.600000
v 0.600000 0.292376 0.600000
v -0.300000 0.589361 0.300000
v -0.300000 0.649361 0.300000
v -0.300000 0.589361 -0.300000
v -0.300000 0.649361 -0.300000
v 0.300000 0.589361 0.300000
v 0.300000 0.649361 0.300000
v 0.300000 0.589361 -0.300000
v 0.300000 0.649361 -0.300000
vt 0.375000 0.000000
vt 0.625000 0.000000
vt 0.625000 0.250000
vt 0.375000 0.250000
vt 0.625000 0.500000
vt 0.375000 0.500000
vt 0.625000 0.750000
vt 0.375000 0.750000
vt 0.625000 1.000000
vt 0.375000 1.000000
vt 0.125000 0.500000
vt 0.125000 0.750000
vt 0.875000 0.500000
vt 0.875000 0.750000
vt 0.375000 0.000000
vt 0.625000 0.250000
vt 0.375000 0.250000
vt 0.625000 0.500000
vt 0.375000 0.500000
vt 0.625000 0.750000
vt 0.375000 0.750000
vt 0.625000 1.000000
vt 0.375000 1.000000
vt 0.125000 0.500000
vt 0.125000 0.750000
vt 0.375000 0.000000
vt 0.625000 0.250000
vt 0.375000 0.250000
vt 0.625000 0.500000
vt 0.375000 0.500000
vt 0.625000 0.750000
vt 0.375000 0.750000
vt 0.625000 1.000000
vt 0.375000 1.000000
vt 0.125000 0.500000
vt 0.125000 0.750000
vt 0.375000 0.000000
vt 0.625000 0.000000
vt 0.625000 0.250000
vt 0.375000 0.250000
vt 0.625000 0.500000
vt 0.375000 0.500000
vt 0.625000 0.750000
vt 0.375000 0.750000
vt 0.625000 1.000000
vt 0.375000 1.000000
vt 0.125000 0.500000
vt 0.125000 0.750000
vt 0.875000 0.500000
vt 0.875000 0.750000
vn -1.0000 0.0000 0.0000
vn 0.0000 0.0000 -1.0000
vn 1.0000 0.0000 0.0000
vn 0.0000 0.0000 1.0000
vn 0.0000 -1.0000 0.0000
vn 0.0000 1.0000 0.0000
vn -0.8957 0.4447 0.0000
vn 0.0000 0.4447 -0.8957
vn 0.8957 0.4447 0.0000
vn 0.0000 0.4447 0.8957
vn -0.8957 -0.4447 -0.0000
vn 0.0000 -0.4447 0.8957
vn 0.8957 -0.4447 -0.0000
vn 0.0000 -0.4447 -0.8957
usemtl None
s off
f 1/1/1 2/2/1 4/3/1 3/4/1
f 3/4/2 4/3/2 8/5/2 7/6/2
f 7/6/3 8/5/3 6/7/3 5/8/3
f 5/8/4 6/7/4 2/9/4 1/10/4
f 3/11/5 7/6/5 5/8/5 1/12/5
f 8/5/6 4/13/6 2/14/6 6/7/6
f 9/15/7 10/16/7 11/17/7
f 11/17/8 10/18/8 13/19/8
f 13/19/9 10/20/9 12/21/9
f 12/21/10 10/22/10 9/23/10
f 11/24/5 13/19/5 12/21/5 9/25/5
f 14/26/11 15/27/11 16/28/11
f 16/28/12 15/29/12 18/30/12
f 18/30/13 15/31/13 17/32/13
f 17/32/14 15/33/14 14/34/14
f 16/35/6 18/30/6 17/32/6 14/36/6
f 19/37/1 20/38/1 22/39/1 21/40/1
f 21/40/2 22/39/2 26/41/2 25/42/2
f 25/42/3 26/41/3 24/43/3 23/44/3
f 23/44/4 24/43/4 20/45/4 19/46/4
f 21/47/5 25/42/5 23/44/5 19/48/5
f 26/41/6 22/49/6 20/50/6 24/43/6
